<?xml version="1.0" standalone="no"?><!DOCTYPE svg PUBLIC "-//W3C//DTD SVG 1.1//EN" "http://www.w3.org/Graphics/SVG/1.1/DTD/svg11.dtd"><svg t="1557109251154" class="icon" style="" viewBox="0 0 1024 1024" version="1.1" xmlns="http://www.w3.org/2000/svg" p-id="4237" xmlns:xlink="http://www.w3.org/1999/xlink" width="280" height="280"><defs><style type="text/css"></style></defs><path d="M512.08192 565.029547L86.941013 990.16704c-14.646613 14.636373-38.376107 14.636373-53.01248 0-14.636373-14.639787-14.636373-38.372693 0-53.009067l425.140907-425.14432L33.928533 86.869333c-14.656853-14.639787-14.667093-38.382933-0.034133-53.039786 14.6432-14.65344 38.396587-14.67392 53.046613-0.034134l425.140907 425.20576L937.280853 33.795413c14.86848-13.274453 37.512533-12.619093 51.57888 1.491627a37.522773 37.522773 0 0 1 1.368747 51.582293L565.0944 512.013653l425.20576 425.202347a37.60128 37.60128 0 0 1-26.610347 63.955627 37.444267 37.444267 0 0 1-26.466986-11.008L512.08192 565.029547z m0 0" fill="" p-id="4238"></path></svg>