<?xml version="1.0" standalone="no"?><!DOCTYPE svg PUBLIC "-//W3C//DTD SVG 1.1//EN" "http://www.w3.org/Graphics/SVG/1.1/DTD/svg11.dtd"><svg t="1557306870176" class="icon" style="" viewBox="0 0 1024 1024" version="1.1" xmlns="http://www.w3.org/2000/svg" p-id="2686" xmlns:xlink="http://www.w3.org/1999/xlink" width="280" height="280"><defs><style type="text/css"></style></defs><path d="M512 552.533L187.733 876.8c-10.666 10.667-29.866 10.667-40.533 0s-10.667-29.867 0-40.533L471.467 512 147.2 189.867c-10.667-12.8-10.667-29.867 0-40.534s29.867-10.666 40.533 0L512 471.467l322.133-322.134c12.8-10.666 29.867-8.533 40.534 2.134s10.666 27.733 0 38.4L552.533 512l322.134 324.267c10.666 10.666 10.666 29.866 0 40.533-4.267 4.267-12.8 8.533-19.2 8.533-8.534 0-14.934-2.133-19.2-8.533C834.133 876.8 512 552.533 512 552.533z" p-id="2687"></path></svg>