<?xml version="1.0" standalone="no"?><!DOCTYPE svg PUBLIC "-//W3C//DTD SVG 1.1//EN" "http://www.w3.org/Graphics/SVG/1.1/DTD/svg11.dtd"><svg t="1556351337147" class="icon" style="" viewBox="0 0 1257 1024" version="1.1" xmlns="http://www.w3.org/2000/svg" p-id="931" xmlns:xlink="http://www.w3.org/1999/xlink" width="343.7109375" height="280"><defs><style type="text/css"></style></defs><path d="M791.35499326 345.41475845a319.65591687 319.65591687 0 0 1 35.3138865 2.17487439C794.94606494 199.90050626 637.01985639 90.125 456.74808181 90.125 255.21311923 90.125 90.125 227.48600283 90.125 401.92102225c0 100.6814979 54.91810053 183.36717691 146.67755686 247.49055945l-36.66938902 110.26105966 128.16583677-64.26500153c45.86455426 9.1041243 82.65533203 18.41056237 128.46930826 18.41056238 11.50154352 0 22.91204608-0.56647925 34.22139175-1.45666022a273.12372647 273.12372647 0 0 1-11.30934566-76.81857687c0-160.17189203 137.57343255-290.14843854 311.69486616-290.14843772z m-197.12452067-99.39680529c27.60572764 0 45.88478614 18.20824859 45.88478613 45.74316632s-18.2790585 45.88478614-45.88478613 45.88478613-55.04960439-18.41056237-55.0496044-45.88478613 27.57538064-45.74316632 55.0496044-45.74316632zM337.64590561 337.65602154c-27.47422375 0-55.20134016-18.41056237-55.20133933-45.88478612s27.7372315-45.74316632 55.20133933-45.74316633 45.77351331 18.20824859 45.77351331 45.74316633-18.28917361 45.88478614-45.77351331 45.88478613z m0 1e-8" fill="#3BAF34" p-id="932"></path><path d="M1125.97202063 631.16287018c0-146.56628403-146.67755686-266.04274082-311.41162656-266.04274081-174.43501941 0-311.82637006 119.47645679-311.82636922 266.04274081 0 146.81917666 137.38123388 266.04274082 311.82636922 266.04274081 36.50753814 0 73.33877801-9.20528119 110.00816785-18.40044644l100.56010996 55.06983545L997.50271238 842.25716348c73.59167065-55.20134016 128.46930826-128.41872939 128.46930825-211.0942933zM713.45403757 585.28819998c-18.20824859 0-36.66938901-18.20824859-36.66938983-36.68962088 0-18.26894257 18.41056237-36.65927307 36.66938983-36.65927307 27.7372315 0 45.89490207 18.40044644 45.89490125 36.65927307 0 18.52183521-18.20824859 36.68962088-45.89490125 36.68962088z m201.66646646 0c-18.12732276 0-36.41649719-18.20824859-36.41649636-36.68962088 0-18.26894257 18.28917361-36.65927307 36.41649636-36.65927307 27.4843397 0 45.88478614 18.40044644 45.88478613 36.65927307 0 18.52183521-18.41056237 36.68962088-45.88478613 36.68962088z m0 0" fill="#3BAF34" p-id="933"></path></svg>